<?xml version="1.0" encoding="UTF-8"?>
<!-- Generated by Pixelmator Pro 3.6.18 -->
<svg width="1024" height="1024" viewBox="0 0 1024 1024" xmlns="http://www.w3.org/2000/svg">
    <path id="-copy" fill="#ffffff" fill-rule="evenodd" stroke="none" d="M 859.471191 836.72937 C 839.979065 845.194519 819.317627 849.427002 797.48645 849.427002 C 775.432434 849.427002 754.604004 845.250183 735.000427 836.896423 C 715.396912 828.542603 698.188416 816.903198 683.374329 801.977783 C 668.560303 787.052368 656.920837 769.788147 648.455688 750.18457 C 639.99054 730.581055 635.757996 709.752625 635.757996 687.698608 C 635.757996 658.070557 643.109253 631.004639 657.81189 606.500244 C 672.514526 581.99585 692.062134 562.448242 716.455139 547.856995 C 740.848206 533.265747 767.858337 525.970215 797.48645 525.970215 C 826.891724 525.970215 853.901917 533.265747 878.5177 547.856995 C 903.133484 562.448242 922.736755 581.99585 937.328064 606.500244 C 951.919373 631.004639 959.214844 658.070557 959.214844 687.698608 C 959.214844 709.752625 954.926636 730.525391 946.350098 750.017517 C 937.77356 769.509644 926.022766 786.718201 911.09729 801.643616 C 896.171875 816.569031 878.963318 828.26416 859.471191 836.72937 Z M 620.052979 790.616699 L 290.581482 790.616699 C 257.166351 790.616699 231.882614 782.263062 214.729523 765.555481 C 197.576431 748.8479 189 723.786987 189 690.371826 L 189 305.09729 C 189 271.68219 197.576431 246.565552 214.729523 229.746582 C 231.882614 212.927612 257.166351 204.518311 290.581482 204.518311 L 723.973511 204.518311 C 757.834229 204.518311 783.229309 212.983337 800.159607 229.913635 C 817.089966 246.843994 825.554993 271.904968 825.554993 305.09729 L 825.554993 483.867371 C 820.876892 483.199036 816.198792 482.642151 811.520691 482.196594 C 806.842651 481.751038 802.164551 481.52832 797.48645 481.52832 C 792.80835 481.52832 788.130249 481.751038 783.452148 482.196594 C 778.774048 482.642151 773.984619 483.199036 769.08374 483.867371 L 769.08374 396.654297 C 769.08374 382.397156 765.352417 371.704468 757.889709 364.575928 C 750.427002 357.447388 739.901367 353.883179 726.312561 353.883179 L 287.908295 353.883179 C 274.319458 353.883179 263.960938 357.447388 256.832367 364.575928 C 249.703796 371.704468 246.139587 382.397156 246.139587 396.654297 L 246.139587 691.0401 C 246.139587 705.52002 249.703796 716.324036 256.832367 723.452637 C 263.960938 730.581177 274.319458 734.145386 287.908295 734.145386 L 597.999146 734.145386 C 599.78125 744.169922 602.565796 753.971558 606.352844 763.550537 C 610.139893 773.129578 614.706604 782.151489 620.052979 790.616699 Z M 707.266052 707.079285 C 711.275818 711.089111 716.288025 713.093994 722.302795 713.093994 L 799.157166 713.093994 C 804.949158 713.093994 809.90564 711.144775 814.026855 707.246338 C 818.14801 703.347961 820.208618 698.502808 820.208618 692.710876 L 820.208618 595.13916 C 820.208618 589.569946 818.14801 584.836243 814.026855 580.937805 C 809.90564 577.039429 804.949158 575.09021 799.157166 575.09021 C 793.365234 575.09021 788.464417 577.039429 784.45459 580.937805 C 780.444824 584.836243 778.43988 589.569946 778.43988 595.13916 L 778.43988 671.659424 L 722.302795 671.659424 C 716.510803 671.659424 711.554321 673.719971 707.433105 677.841187 C 703.31189 681.962402 701.251343 686.918945 701.251343 692.710876 C 701.251343 698.280029 703.256226 703.069458 707.266052 707.079285 Z M 423.918518 678.869751 C 420.33847 679.519043 417.13562 678.728882 414.309875 676.499268 C 411.482727 674.351929 409.772552 671.510986 409.179321 667.976318 C 408.58606 664.44165 409.100525 660.253174 410.722748 655.410645 L 437.46347 575.922974 L 369.29071 527.061218 C 365.101074 524.024048 362.165405 520.903442 360.483582 517.699524 C 358.801758 514.495544 358.549866 511.185547 359.727844 507.769409 C 360.814972 504.444092 362.973999 501.956909 366.204926 500.307739 C 369.435852 498.658569 373.613708 497.879395 378.738617 497.970215 L 462.435089 498.528015 L 487.813324 418.593262 C 489.427002 413.651428 491.49588 409.904602 494.02005 407.352844 C 496.544159 404.801025 499.563965 403.525085 503.079437 403.525085 C 506.677246 403.525085 509.737793 404.801025 512.26123 407.352844 C 514.784668 409.904602 516.853943 413.651428 518.468994 418.593262 L 543.860046 498.528015 L 627.530945 497.970215 C 632.664368 497.879395 636.846497 498.661011 640.077454 500.315186 C 643.30835 501.969299 645.467346 504.458313 646.554504 507.782166 C 647.723938 511.189819 647.46991 514.495544 645.792358 517.699524 C 644.114807 520.903442 641.181274 524.024048 636.991638 527.061218 L 568.818909 575.922974 L 595.557495 655.410645 C 597.181091 660.253174 597.698425 664.44165 597.109375 667.976318 C 596.520447 671.510986 594.812378 674.351929 591.985229 676.499268 C 589.149536 678.728882 585.941772 679.519043 582.361694 678.869751 C 578.781616 678.220459 574.89679 676.367981 570.707214 673.312317 L 503.079437 623.633057 L 435.560242 673.312317 C 431.37912 676.367981 427.498596 678.220459 423.918518 678.869751 Z"/>
</svg>
